{"title":"A.Nightmare.on.Elm.Street.2010.DVDRiP.XViD.OPTIONAL-MULTI_SUB-Ze","uid":5858069,"size":747869384,"categoryP":"video","categoryS":"movies","magnet":"?xt=urn:btih:64b08f6d170094eda64f63158e52f5e3758c842e&amp;dn=A.Nightmare.on.Elm.Street.2010.DVDRiP.XViD.OPTIONAL-MULTI_SUB-Ze&amp;tr=udp%3A%2F%2Ftracker.openbittorrent.com%3A80&amp;tr=udp%3A%2F%2Fopen.demonii.com%3A1337&amp;tr=udp%3A%2F%2Ftracker.coppersurfer.tk%3A6969&amp;tr=udp%3A%2F%2Fexodus.desync.com%3A6969","seeders":1,"leechers":0,"uploader":"Zen_Bud","files":-1,"time":1285873846,"description":"\n***** A.Nightmare.on.Elm.Street.2010.DVDRiP.XViD.OPTIONAL-MULTI_SUB-Zen_Bud ******\n\nFormat                           : AVI\nFile size                        : 707 MiB\nDuration                         : 1h 35mn\nOverall bit rate                 : 1 035 Kbps\n\nVideo\n\nFormat                           : MPEG-4 Visual\nCodec ID/Hint                    : XviD\nDuration                         : 1h 35mn\nBit rate                         : 894 Kbps\nWidth                            : 720 pixels\nHeight                           : 352 pixels\nDisplay aspect ratio             : 2.40:1\nStream size                      : 611 MiB (86%)\nWriting library                  : XviD 1.1.2 (UTC 2006-11-01)\n\nAudio\n\nFormat                           : MPEG Audio\nCodec ID/Hint                    : MP3\nDuration                         : 1h 35mn\nBit rate                         : 128 Kbps\nChannel(s)                       : 2 channels\nSampling rate                    : 48.0 KHz\nStream size                      : 87.5 MiB (12%)\nWriting library                  : LAME3.98\nLanguage                         : English\n\nText #1\nLanguage                         : Danish\n\nText #2\nLanguage                         : Finnish\n\nText #3\nLanguage                         : Swedish","torrent":{"xt":"urn:btih:64b08f6d170094eda64f63158e52f5e3758c842e","amp;dn":"A.Nightmare.on.Elm.Street.2010.DVDRiP.XViD.OPTIONAL-MULTI_SUB-Ze","amp;tr":["udp%3A%2F%2Ftracker.openbittorrent.com%3A80","udp%3A%2F%2Fopen.demonii.com%3A1337","udp%3A%2F%2Ftracker.coppersurfer.tk%3A6969","udp%3A%2F%2Fexodus.desync.com%3A6969"],"infoHash":"64b08f6d170094eda64f63158e52f5e3758c842e","infoHashBuffer":{"type":"Buffer","data":[100,176,143,109,23,0,148,237,166,79,99,21,142,82,245,227,117,140,132,46]},"announce":[],"urlList":[]}}